<?xml version="1.0" encoding="UTF-8" standalone="no"?>
<svg 
  version="1.1" 
  xmlns="http://www.w3.org/2000/svg" 
  xmlns:xlink="http://www.w3.org/1999/xlink" 
  xmlns:svg="http://www.w3.org/2000/svg"
  xmlns:rdf="http://www.w3.org/1999/02/22-rdf-syntax-ns#"
  xmlns:cc="http://creativecommons.org/ns#"
  xmlns:dc="http://purl.org/dc/elements/1.1/"
  viewBox="0 0 768 768"
  width="768"
  height="768"
>
<style>svg {background-color: white; }</style>"
<metadata id="metadata1">
Created by https://svgstud.io and licensed under CC-BY-SA 4.0 license. Please attribute https://svgstud.io
</metadata>
<metadata id="prompt">
cartoon style!!, monochrome, Cartoon Gladiator, plain background, extremely minimalistic
</metadata>
<metadata id="version">
7
</metadata>
<metadata id="metadata2">
<rdf:RDF>
<cc:Work
    rdf:about="">
    <cc:license
    rdf:resource="http://creativecommons.org/licenses/by-sa/4.0/" />
    <dc:creator>
        <cc:Agent>
            <dc:title>https://svgstud.io</dc:title>
        </cc:Agent>
    </dc:creator>
</cc:Work>
<cc:License
    rdf:about="http://creativecommons.org/licenses/by-sa/4.0/">
    <cc:permits
    rdf:resource="http://creativecommons.org/ns#Reproduction" />
    <cc:permits
    rdf:resource="http://creativecommons.org/ns#Distribution" />
    <cc:requires
    rdf:resource="http://creativecommons.org/ns#Notice" />
    <cc:requires
    rdf:resource="http://creativecommons.org/ns#Attribution" />
    <cc:permits
    rdf:resource="http://creativecommons.org/ns#DerivativeWorks" />
    <cc:requires
    rdf:resource="http://creativecommons.org/ns#ShareAlike" />
</cc:License>
</rdf:RDF>
</metadata>
<metadata id="uid">
8627388a510f058c5560efd1605bd505a894d777635a5f612c16c7477e00c588
</metadata>
<path stroke="none" fill="black" fill-rule="evenodd" d="M419.50,730.27C403.00,730.46 376.68,730.30 361.00,729.92C345.32,729.53 324.18,728.70 314.00,728.07C303.82,727.44 289.44,726.23 282.04,725.39C274.64,724.56 264.29,722.99 259.04,721.92C253.79,720.85 245.22,718.64 240.00,717.00C234.78,715.37 227.57,712.53 224.00,710.69C220.09,708.68 216.60,706.02 215.25,704.02C213.71,701.76 213.00,699.23 213.00,696.05C213.00,693.03 213.92,689.54 215.62,686.14C217.38,682.61 220.55,678.90 225.32,674.79C229.22,671.44 235.74,666.52 239.80,663.86C243.87,661.21 252.33,656.53 258.60,653.47C270.00,647.91 270.00,647.91 270.00,644.26C270.00,642.25 269.49,634.48 268.86,626.99C268.23,619.50 268.03,611.26 268.42,608.69C268.88,605.65 269.78,603.65 270.99,603.01C272.02,602.46 275.93,601.67 279.68,601.25C286.50,600.50 286.50,600.50 287.16,594.50C287.53,591.20 288.14,582.19 288.54,574.47C289.25,560.44 289.25,560.44 278.87,556.62C273.17,554.52 266.24,551.52 263.48,549.96C260.72,548.39 257.40,545.99 256.11,544.62C253.90,542.26 253.84,541.85 254.99,537.05C255.66,534.25 258.10,528.26 260.42,523.73C262.74,519.21 268.61,509.20 273.47,501.50C278.33,493.80 283.11,485.93 284.10,484.00C285.09,482.07 286.60,476.54 287.47,471.69C289.05,462.88 289.05,462.88 285.96,452.69C284.27,447.09 281.29,437.66 279.36,431.75C277.42,425.84 275.44,421.00 274.96,421.00C274.47,421.00 272.11,423.14 269.71,425.75C267.31,428.36 261.84,434.47 257.57,439.31C249.91,447.99 249.78,448.23 248.91,455.16C248.19,460.90 246.88,464.37 241.81,473.97C235.58,485.75 235.58,485.75 236.92,492.49C237.66,496.19 238.24,501.61 238.21,504.54C238.19,507.46 237.41,511.45 236.48,513.41C235.55,515.37 233.37,517.83 231.64,518.88C229.91,519.93 226.03,521.12 223.02,521.52C219.49,521.99 216.31,523.19 214.09,524.88C211.01,527.22 209.79,527.49 202.57,527.44C196.30,527.39 193.56,526.89 190.28,525.18C187.96,523.97 184.41,521.54 182.39,519.77C179.17,516.94 177.79,516.47 171.06,515.89C165.88,515.45 161.78,514.42 158.45,512.72C155.73,511.34 150.91,507.50 147.74,504.17C144.58,500.85 141.16,496.19 140.15,493.82C139.13,491.44 137.99,487.12 137.61,484.22C137.23,481.32 137.42,476.14 138.03,472.72C138.63,469.30 140.86,462.90 142.98,458.49C145.09,454.09 148.68,448.15 150.96,445.29C153.23,442.44 157.88,438.03 161.29,435.50C164.71,432.96 168.24,430.28 169.15,429.54C170.06,428.80 171.56,425.59 172.48,422.41C173.58,418.63 175.35,415.45 177.60,413.20C181.03,409.77 181.03,409.77 190.67,410.13C200.31,410.50 200.31,410.50 205.09,402.42C207.72,397.98 212.60,391.33 215.94,387.65C221.65,381.34 222.00,380.68 222.00,375.96C222.00,371.50 222.44,370.48 226.06,366.55C228.30,364.12 232.82,360.42 236.12,358.32C241.57,354.84 242.07,354.23 241.69,351.50C241.46,349.85 238.99,339.73 236.20,329.00C233.42,318.27 230.43,305.23 229.57,300.00C228.71,294.77 227.37,284.20 226.58,276.50C225.79,268.80 224.84,256.65 224.46,249.50C224.04,241.47 224.22,232.87 224.93,227.00C225.56,221.78 227.37,211.88 228.95,205.00C230.53,198.12 232.79,189.91 233.99,186.74C235.54,182.59 236.96,180.55 239.03,179.49C240.76,178.59 244.65,178.00 248.81,178.00C255.72,178.00 255.72,178.00 259.01,171.83C260.82,168.44 265.47,160.90 269.35,155.08C274.26,147.71 280.36,140.53 289.45,131.42C296.63,124.23 305.46,116.26 309.07,113.71C312.68,111.16 319.43,106.96 324.07,104.37C328.71,101.77 335.81,96.58 339.87,92.81C343.92,89.05 350.90,83.53 355.38,80.55C359.86,77.57 365.77,74.15 368.51,72.95C371.25,71.75 376.52,70.54 380.22,70.25C386.09,69.80 387.63,70.07 392.39,72.40C395.70,74.02 400.16,77.56 403.80,81.44C407.58,85.49 410.39,89.60 411.47,92.66C412.41,95.32 413.52,98.17 413.94,99.00C414.35,99.83 418.25,102.47 422.60,104.87C426.94,107.27 434.30,111.97 438.93,115.32C443.57,118.66 451.74,125.60 457.09,130.73C462.43,135.86 469.61,143.61 473.02,147.95C476.44,152.29 481.66,159.81 484.62,164.66C487.59,169.50 492.27,178.82 495.03,185.36C497.79,191.90 500.96,200.76 502.08,205.07C503.84,211.85 504.11,216.16 504.17,237.69C504.21,251.34 503.74,269.25 503.12,277.50C502.51,285.75 501.75,295.20 501.44,298.50C500.88,304.50 500.88,304.50 504.40,300.63C506.34,298.50 508.61,294.68 509.46,292.13C510.30,289.58 511.42,283.90 511.93,279.50C512.45,275.10 513.18,265.55 513.55,258.28C514.04,248.68 514.61,244.74 515.65,243.87C516.74,242.97 517.36,242.96 518.25,243.85C518.89,244.49 519.59,249.14 519.82,254.35C520.04,259.49 519.74,269.52 519.14,276.63C518.46,284.83 517.12,292.67 515.51,298.03C514.10,302.69 510.48,316.10 507.46,327.82C504.44,339.55 501.08,350.88 500.00,353.01C498.91,355.13 497.57,357.15 497.01,357.49C496.46,357.84 496.00,358.51 496.00,358.99C496.00,359.46 498.39,361.22 501.32,362.89C504.24,364.57 507.45,366.84 508.45,367.94C509.82,369.46 510.15,371.01 509.78,374.26C509.51,376.63 508.09,380.49 506.61,382.82C505.14,385.16 504.21,387.54 504.56,388.10C504.91,388.66 506.39,389.59 507.85,390.15C509.31,390.72 513.55,391.82 517.28,392.61C521.90,393.58 524.64,393.73 525.89,393.06C526.90,392.52 528.30,390.69 529.00,388.99C529.71,387.29 531.68,385.18 533.39,384.30C535.10,383.41 543.48,381.29 552.00,379.59C567.50,376.50 567.50,376.50 567.44,372.50C567.40,370.30 566.56,362.20 565.56,354.50C564.34,345.08 563.11,339.45 561.81,337.29C560.57,335.23 559.55,330.77 558.94,324.79C558.42,319.68 556.86,306.73 555.48,296.00C554.10,285.27 552.54,275.49 552.01,274.25C551.42,272.89 548.75,270.98 545.28,269.45C542.11,268.04 538.49,265.93 537.23,264.75C535.97,263.56 534.29,260.32 533.50,257.55C532.71,254.77 530.73,243.28 529.10,232.00C527.46,220.72 525.21,203.85 524.10,194.50C522.98,185.15 521.58,169.18 520.98,159.00C520.38,148.82 520.17,135.55 520.51,129.50C520.86,123.45 522.01,111.62 523.09,103.22C524.16,94.81 525.82,85.59 526.77,82.72C528.25,78.25 528.90,77.45 531.31,77.18C533.70,76.90 535.45,78.19 542.90,85.68C547.72,90.53 555.42,99.22 560.01,105.00C564.59,110.78 571.41,120.14 575.15,125.82C578.90,131.49 584.41,140.72 587.40,146.32C590.39,151.92 594.65,160.89 596.88,166.27C599.10,171.64 602.29,180.32 603.97,185.57C605.65,190.82 608.35,201.73 609.97,209.81C611.58,217.89 613.59,229.22 614.43,235.00C615.26,240.78 616.47,254.11 617.11,264.64C618.21,282.69 618.17,283.99 616.39,287.64C615.16,290.14 611.91,293.43 607.12,297.00C599.74,302.50 599.74,302.50 600.33,311.50C600.65,316.45 601.41,322.83 602.02,325.68C602.98,330.11 602.89,331.24 601.44,333.45C599.85,335.88 599.85,336.82 601.49,349.27C602.44,356.55 603.60,363.21 604.06,364.09C604.75,365.40 606.28,365.59 612.80,365.22C618.84,364.87 621.52,365.15 624.22,366.43C626.16,367.35 628.48,369.54 629.38,371.30C630.28,373.06 631.47,378.10 632.01,382.50C632.56,386.90 633.50,396.12 634.09,403.00C634.68,409.88 634.87,418.34 634.50,421.81C633.97,426.80 633.21,428.83 630.90,431.46C629.29,433.29 626.15,435.52 623.91,436.42C620.27,437.87 619.91,438.33 620.40,440.77C620.70,442.27 622.10,452.50 623.50,463.50C624.91,474.50 628.33,498.35 631.10,516.50C633.88,534.65 637.67,559.85 639.54,572.50C641.40,585.15 645.19,610.96 647.96,629.86C650.73,648.75 653.00,666.46 653.00,669.21C653.00,673.52 652.55,674.65 649.70,677.50C647.89,679.31 644.63,681.29 642.45,681.89C640.28,682.49 637.13,682.99 635.46,682.99C633.79,683.00 630.44,681.99 628.02,680.75C625.60,679.51 622.80,677.38 621.80,676.00C620.57,674.29 619.21,668.25 617.54,657.00C616.19,647.92 613.98,633.30 612.63,624.50C611.27,615.70 608.74,598.60 606.99,586.50C605.24,574.40 602.28,554.15 600.40,541.50C598.52,528.85 594.71,502.30 591.94,482.50C589.16,462.70 586.46,445.48 585.95,444.22C585.02,441.95 585.02,441.95 581.24,443.88C579.15,444.94 574.63,446.37 571.18,447.04C567.55,447.76 561.58,448.05 557.02,447.74C552.22,447.41 548.00,446.52 546.22,445.47C543.41,443.81 543.02,443.83 536.90,445.85C533.38,447.01 527.21,448.64 523.18,449.48C519.16,450.32 511.67,451.00 506.54,451.00C499.90,451.00 494.38,450.28 487.36,448.50C481.25,446.96 473.19,443.86 466.15,440.35C456.96,435.77 454.63,434.97 453.89,436.10C453.39,436.87 451.17,443.12 448.95,450.00C446.73,456.88 443.77,468.22 442.39,475.22C439.87,487.94 439.87,487.94 443.65,494.72C445.72,498.45 451.50,508.25 456.47,516.50C461.45,524.75 466.36,533.38 467.38,535.69C468.55,538.31 469.01,540.84 468.60,542.46C468.22,543.97 465.90,546.51 462.98,548.61C460.24,550.58 458.00,552.51 458.00,552.90C458.00,553.29 459.60,560.10 461.55,568.05C463.50,575.99 465.51,582.91 466.02,583.42C466.52,583.92 469.41,584.38 472.43,584.42C476.13,584.47 478.47,585.04 479.58,586.15C480.49,587.06 481.61,589.76 482.07,592.15C482.53,594.54 482.93,601.52 482.96,607.65C483.00,618.80 483.00,618.80 486.52,620.88C488.45,622.02 490.47,624.12 491.02,625.54C491.56,626.96 492.00,630.29 492.00,632.94C492.00,635.59 492.26,639.06 492.58,640.66C492.94,642.43 494.47,644.47 496.48,645.85C498.31,647.10 503.06,650.95 507.06,654.41C514.31,660.71 514.31,660.71 528.41,662.41C536.16,663.35 549.02,665.42 557.00,667.01C564.98,668.60 575.48,671.06 580.33,672.47C585.19,673.88 592.62,676.37 596.83,678.00C601.05,679.63 607.08,682.57 610.23,684.54C614.91,687.47 616.18,688.87 617.17,692.18C618.18,695.53 618.13,696.68 616.91,698.86C616.10,700.31 613.05,702.93 610.14,704.68C607.22,706.42 599.28,709.67 592.49,711.89C585.70,714.10 573.70,717.26 565.82,718.90C557.95,720.53 546.33,722.57 540.00,723.42C533.67,724.27 520.62,725.63 511.00,726.44C501.38,727.26 483.60,728.38 471.50,728.93C459.40,729.48 436.00,730.08 419.50,730.27zM440.78,713.87C449.73,713.94 463.66,713.31 471.74,712.46C479.81,711.61 490.71,709.99 495.96,708.85C501.21,707.72 508.43,705.69 512.00,704.35C515.58,703.01 520.19,700.80 522.25,699.44C525.08,697.58 525.99,696.30 525.98,694.24C525.97,692.73 525.13,689.70 524.13,687.50C523.12,685.30 520.16,680.89 517.55,677.69C514.93,674.50 509.39,668.98 505.22,665.42C501.06,661.87 495.22,657.35 492.25,655.38C488.12,652.64 486.11,651.90 483.68,652.24C481.93,652.48 473.30,654.84 464.50,657.49C449.67,661.95 447.47,662.34 434.40,662.90C420.31,663.50 420.31,663.50 415.40,667.45C412.71,669.62 406.57,675.30 401.76,680.06C396.95,684.82 392.34,690.34 391.51,692.32C390.68,694.31 390.00,698.19 390.00,700.94C390.00,705.11 390.40,706.22 392.36,707.50C393.66,708.35 398.05,709.74 402.11,710.59C406.18,711.44 412.88,712.49 417.00,712.93C421.12,713.37 431.83,713.79 440.78,713.87zM301.00,711.45C310.74,711.27 322.71,710.42 328.00,709.53C333.23,708.66 341.76,706.81 346.96,705.44C352.16,704.06 356.77,702.39 357.20,701.72C357.62,701.05 357.98,699.51 357.98,698.30C357.99,697.09 357.51,693.80 356.90,690.99C356.22,687.82 353.86,682.97 350.67,678.19C347.85,673.96 343.67,668.63 341.39,666.35C337.25,662.20 337.25,662.20 324.88,662.73C317.77,663.03 309.31,662.77 305.00,662.12C300.88,661.49 292.21,659.36 285.75,657.38C274.00,653.78 274.00,653.78 262.90,659.92C256.79,663.30 248.09,668.51 243.56,671.49C239.03,674.48 232.29,679.75 228.59,683.21C223.46,688.00 221.66,690.42 221.01,693.37C220.54,695.50 220.40,697.88 220.70,698.66C221.00,699.44 222.47,700.71 223.97,701.48C225.46,702.26 230.25,703.83 234.60,704.97C238.94,706.12 249.47,707.93 258.00,709.01C266.52,710.08 275.75,711.14 278.50,711.37C281.25,711.59 291.38,711.63 301.00,711.45zM640.35,670.81C643.36,670.51 643.51,670.29 643.81,665.61C643.98,662.92 642.93,651.00 641.48,639.11C640.03,627.22 637.74,610.30 636.39,601.50C635.04,592.70 632.14,573.35 629.94,558.50C627.75,543.65 624.62,522.50 623.00,511.50C621.37,500.50 618.45,480.70 616.50,467.50C614.55,454.30 612.71,442.71 612.41,441.75C612.03,440.54 610.83,440.00 608.49,440.00C606.64,440.00 604.86,440.42 604.54,440.94C604.22,441.45 605.09,449.21 606.46,458.19C607.84,467.16 611.20,488.26 613.94,505.09C616.68,521.91 620.70,548.24 622.88,563.59C625.06,578.94 627.58,597.80 628.49,605.50C629.39,613.20 631.23,628.05 632.56,638.50C633.90,648.95 635.49,660.56 636.10,664.31C637.20,671.11 637.20,671.11 640.35,670.81zM428.73,658.46C432.45,658.13 438.65,657.24 442.50,656.50C446.35,655.75 454.83,653.25 461.34,650.93C467.85,648.62 475.28,645.33 477.84,643.61C482.48,640.52 482.50,640.47 482.80,634.25C483.02,629.50 482.77,628.00 481.74,628.00C480.99,628.00 476.35,629.36 471.44,631.03C466.52,632.70 459.05,634.95 454.83,636.03C450.62,637.11 444.99,637.94 442.33,637.86C439.68,637.79 438.52,637.53 439.76,637.29C441.01,637.05 441.78,636.46 441.48,635.98C441.18,635.49 442.87,634.60 445.22,633.99C447.57,633.38 451.07,632.39 453.00,631.79C454.93,631.18 459.25,629.45 462.62,627.94C468.74,625.20 468.74,625.20 469.23,610.85C469.49,602.96 469.56,596.32 469.38,596.11C469.20,595.89 465.33,597.12 460.77,598.83C456.22,600.54 450.03,602.46 447.02,603.10C443.36,603.88 437.11,604.04 428.27,603.58C415.23,602.90 415.00,602.93 415.00,604.99C415.00,606.15 415.76,608.54 416.68,610.30C417.61,612.06 420.44,618.45 422.97,624.50C427.57,635.50 427.57,635.50 432.53,636.57C437.50,637.64 437.50,637.64 432.15,638.37C429.21,638.77 425.05,639.80 422.90,640.66C419.73,641.92 419.00,642.71 419.02,644.86C419.04,646.31 419.50,649.52 420.05,652.00C420.60,654.48 421.26,657.08 421.51,657.78C421.84,658.73 423.69,658.91 428.73,658.46zM319.17,656.45C324.48,656.20 329.48,655.75 330.26,655.45C331.27,655.06 332.05,651.52 332.95,643.20C333.65,636.77 334.84,628.43 335.61,624.68C336.37,620.94 337.00,617.28 337.00,616.56C337.00,615.57 333.59,615.14 322.75,614.79C310.98,614.42 306.21,613.76 295.34,611.04C286.20,608.75 281.11,607.94 278.68,608.40C276.76,608.76 274.96,609.67 274.67,610.42C274.38,611.17 274.81,619.15 275.63,628.14C276.45,637.14 277.32,645.50 277.57,646.72C277.94,648.53 279.55,649.40 286.26,651.40C290.79,652.75 296.98,654.33 300.00,654.92C303.02,655.50 306.40,656.19 307.50,656.44C308.60,656.70 313.85,656.70 319.17,656.45zM408.00,655.54C412.50,655.50 412.50,655.50 412.16,648.26C411.83,641.31 411.94,640.90 414.91,637.94C416.61,636.24 418.00,634.30 418.00,633.63C418.00,632.96 415.95,627.30 413.44,621.06C410.92,614.81 408.63,607.63 408.33,605.10C407.87,601.07 408.12,600.20 410.40,598.08C411.83,596.74 413.00,594.71 413.00,593.56C413.00,592.41 411.90,586.58 410.55,580.61C409.20,574.65 407.84,569.51 407.53,569.20C407.23,568.89 403.04,569.21 398.24,569.90C393.43,570.59 379.30,571.41 366.82,571.71C344.15,572.27 344.15,572.27 343.54,574.71C343.20,576.06 342.04,581.45 340.96,586.69C339.88,591.93 339.00,597.92 339.00,599.99C339.00,603.24 339.41,603.93 342.04,605.02C343.71,605.71 345.51,607.08 346.04,608.07C346.57,609.06 347.00,611.36 346.99,613.18C346.99,615.01 345.89,621.67 344.56,628.00C343.22,634.33 341.98,642.88 341.81,647.00C341.50,654.50 341.50,654.50 372.50,655.04C389.55,655.34 405.52,655.57 408.00,655.54zM310.00,633.80C306.98,633.82 301.57,633.16 298.00,632.35C294.43,631.53 290.38,630.32 289.00,629.64C286.77,628.55 286.50,627.81 286.50,622.71C286.50,619.57 286.95,616.97 287.50,616.93C288.05,616.89 289.19,619.25 290.03,622.18C291.54,627.38 291.69,627.54 297.03,629.25C300.04,630.21 305.43,631.62 309.00,632.38C315.50,633.77 315.50,633.77 310.00,633.80zM316.68,608.91C321.19,608.96 325.98,608.58 327.33,608.06C329.38,607.29 329.91,606.23 330.46,601.81C330.82,598.89 332.00,591.46 333.06,585.30C334.13,579.14 335.00,573.91 335.00,573.68C335.00,573.46 333.09,572.56 330.75,571.69C328.41,570.81 319.79,568.50 311.59,566.54C303.40,564.58 296.51,563.16 296.29,563.38C296.07,563.60 295.18,572.86 294.31,583.95C293.29,596.97 293.07,604.47 293.70,605.10C294.23,605.63 297.78,606.68 301.58,607.44C305.39,608.19 312.18,608.85 316.68,608.91zM435.50,598.65C441.19,598.35 446.57,597.40 450.11,596.07C453.20,594.91 456.48,593.13 457.39,592.12C458.95,590.40 458.83,589.35 455.54,575.60C453.61,567.53 451.56,560.05 450.99,558.98C449.97,557.08 449.79,557.10 443.22,559.67C439.53,561.11 432.00,563.51 426.50,564.99C418.51,567.13 416.45,568.06 416.27,569.59C416.14,570.64 417.27,577.11 418.78,583.98C421.17,594.83 421.85,596.63 424.01,597.79C425.77,598.73 429.13,598.98 435.50,598.65zM351.61,562.23C352.22,562.04 353.02,558.65 353.39,554.70C353.75,550.74 355.39,539.05 357.02,528.72C358.66,518.39 360.00,508.67 360.00,507.12C360.00,504.30 360.00,504.30 350.85,503.65C345.81,503.29 339.99,503.00 337.92,503.00C334.14,503.00 334.14,503.00 332.99,508.75C332.36,511.91 329.36,524.35 326.34,536.39C322.03,553.50 321.11,558.45 322.12,559.07C322.83,559.51 325.68,560.19 328.45,560.58C331.23,560.97 337.32,561.58 342.00,561.93C346.68,562.28 351.00,562.41 351.61,562.23zM378.89,560.59C384.73,560.22 390.54,559.65 391.80,559.33C393.67,558.87 394.01,558.26 393.59,556.13C393.30,554.68 391.91,543.83 390.50,532.00C389.08,520.17 387.71,509.13 387.45,507.45C386.99,504.41 386.99,504.41 377.24,504.82C371.88,505.04 367.27,505.44 367.00,505.70C366.73,505.97 366.62,518.12 366.77,532.71C366.91,547.31 367.32,559.70 367.66,560.26C368.07,560.92 372.06,561.03 378.89,560.59zM310.00,556.71C312.13,556.53 312.76,555.62 314.31,550.50C315.30,547.20 319.06,535.27 322.66,524.00C326.25,512.73 329.27,503.09 329.35,502.60C329.43,502.10 325.55,500.82 320.71,499.76C315.88,498.69 311.27,498.07 310.47,498.37C309.67,498.68 308.33,500.64 307.49,502.72C306.66,504.80 301.50,515.91 296.02,527.40C290.55,538.90 286.31,548.69 286.60,549.16C286.89,549.63 288.39,550.67 289.93,551.46C291.47,552.26 296.06,553.82 300.12,554.92C304.18,556.02 308.62,556.83 310.00,556.71zM422.89,554.00C423.91,554.00 426.72,553.31 429.12,552.46C431.53,551.61 436.54,549.52 440.25,547.81C444.75,545.74 447.00,544.13 447.00,542.99C447.00,542.05 442.79,533.90 437.65,524.89C432.51,515.87 427.00,506.36 425.41,503.75C423.82,501.14 422.06,499.01 421.51,499.01C420.95,499.02 416.29,499.90 411.14,500.96C405.99,502.02 401.55,503.12 401.27,503.39C401.00,503.67 404.47,513.48 409.00,525.20C413.53,536.91 418.09,548.19 419.13,550.25C420.30,552.55 421.76,554.00 422.89,554.00zM278.61,546.96C279.22,546.98 281.40,543.29 283.45,538.75C285.50,534.21 291.19,523.01 296.09,513.86C300.99,504.70 305.00,496.77 305.00,496.24C305.00,495.70 302.27,494.08 298.93,492.63C295.60,491.18 292.24,490.00 291.46,490.00C290.69,490.00 287.88,493.26 285.21,497.25C282.54,501.24 278.08,508.32 275.30,513.00C272.52,517.67 268.62,524.61 266.62,528.40C264.63,532.20 263.00,536.30 263.00,537.53C263.00,538.75 263.62,540.27 264.37,540.90C265.13,541.52 268.39,543.13 271.62,544.48C274.86,545.82 278.00,546.93 278.61,546.96zM203.19,519.90C205.22,519.95 207.18,519.52 207.54,518.93C207.91,518.34 206.96,515.07 205.43,511.68C203.44,507.25 202.53,503.37 202.23,498.00C201.81,490.57 201.84,490.45 205.62,485.65C209.19,481.10 209.49,480.93 210.37,482.90C210.99,484.29 210.91,486.35 210.16,488.87C209.52,491.00 209.00,494.30 209.00,496.22C209.00,498.13 209.51,501.23 210.14,503.10C210.76,504.97 212.40,508.01 213.78,509.86C216.14,513.04 216.55,513.20 221.17,512.76C224.44,512.44 226.88,511.52 228.53,509.97C230.21,508.40 231.00,506.57 231.00,504.29C231.00,502.43 230.02,499.03 228.83,496.71C227.32,493.77 226.66,490.69 226.65,486.50C226.65,482.92 227.55,477.79 228.90,473.77C230.13,470.07 230.88,466.62 230.56,466.10C230.24,465.57 228.29,464.61 226.24,463.96C224.18,463.31 218.85,460.87 214.39,458.52C209.93,456.18 203.82,452.46 200.83,450.24C197.83,448.03 191.66,443.01 187.11,439.09C178.83,431.97 178.83,431.97 173.72,434.73C170.91,436.25 165.12,440.89 160.86,445.03C154.86,450.86 152.30,454.27 149.53,460.11C147.56,464.26 145.42,470.46 144.78,473.90C143.91,478.60 143.90,481.50 144.75,485.57C145.38,488.54 147.25,492.96 148.92,495.39C150.59,497.81 153.88,501.21 156.23,502.94C158.58,504.67 162.90,506.78 165.82,507.63C168.75,508.49 171.40,508.93 171.71,508.62C172.02,508.31 172.35,502.53 172.45,495.78C172.58,486.35 173.02,482.74 174.33,480.25C175.28,478.46 176.23,477.00 176.44,477.00C176.66,477.00 177.56,476.72 178.44,476.39C179.86,475.84 180.01,477.15 179.77,488.14C179.62,494.94 179.86,502.20 180.30,504.27C180.74,506.35 182.49,509.63 184.20,511.57C185.90,513.51 188.69,515.83 190.40,516.72C192.10,517.61 194.85,518.66 196.50,519.06C198.15,519.47 201.16,519.84 203.19,519.90zM365.79,496.87C374.75,496.94 386.45,496.52 391.79,495.94C397.13,495.35 405.33,494.04 410.01,493.03C414.69,492.02 421.21,490.11 424.51,488.79C428.98,487.00 430.58,485.83 430.82,484.19C431.00,482.99 430.64,482.00 430.04,482.00C429.43,482.00 428.68,482.68 428.36,483.50C428.05,484.32 427.38,485.00 426.89,485.00C426.40,485.00 426.00,484.41 426.00,483.69C426.00,482.96 427.39,481.05 429.09,479.44C430.79,477.82 432.85,475.22 433.66,473.66C434.48,472.09 434.94,470.61 434.68,470.35C434.43,470.10 431.52,470.59 428.23,471.44C424.93,472.29 416.96,473.90 410.51,475.00C404.06,476.10 390.46,477.46 380.28,478.01C367.67,478.70 356.78,478.69 346.13,477.99C337.53,477.42 326.68,476.29 322.00,475.48C317.32,474.67 310.35,473.11 306.50,472.01C302.65,470.90 298.32,470.00 296.86,470.00C295.37,470.00 293.95,470.69 293.61,471.58C293.27,472.45 293.00,475.34 293.00,478.00C293.00,482.38 293.31,483.03 296.25,484.83C298.04,485.93 302.24,487.75 305.59,488.87C308.95,490.00 316.37,491.84 322.09,492.97C327.82,494.11 336.32,495.41 341.00,495.88C345.68,496.35 356.83,496.79 365.79,496.87zM163.14,493.41C162.67,493.70 161.55,491.65 160.64,488.86C159.74,486.06 159.00,481.38 159.00,478.47C159.00,475.55 159.27,472.45 159.61,471.58C159.94,470.71 161.07,470.00 162.11,470.00C163.85,470.00 164.00,470.88 164.00,481.44C164.00,487.73 163.61,493.12 163.14,493.41zM353.00,472.63C362.50,472.50 362.50,472.50 362.17,464.86C361.97,460.30 362.25,456.96 362.87,456.58C363.47,456.21 364.31,457.53 364.87,459.72C365.40,461.80 366.13,465.38 366.49,467.67C366.85,469.97 367.79,472.09 368.57,472.39C369.34,472.69 375.72,472.50 382.74,471.97C389.76,471.44 400.81,469.95 407.30,468.65C413.79,467.36 419.47,465.90 419.94,465.40C420.40,464.91 421.95,460.37 423.39,455.31C424.83,450.26 426.00,445.76 426.00,445.31C426.00,444.87 415.09,444.44 401.75,444.36C388.41,444.28 375.51,443.82 373.08,443.34C370.65,442.86 368.49,441.97 368.29,441.36C368.04,440.63 370.89,440.00 376.46,439.53C384.36,438.87 385.00,438.66 385.00,436.63C385.00,435.43 383.88,428.04 382.50,420.20C381.12,412.36 380.00,405.79 380.00,405.61C380.00,405.43 376.51,404.98 372.25,404.61C367.99,404.25 359.17,403.24 352.65,402.37C340.80,400.79 340.80,400.79 333.15,403.79C328.94,405.44 323.70,407.04 321.50,407.35C319.30,407.67 314.87,408.19 311.65,408.52C308.43,408.85 300.63,408.59 294.32,407.94C286.16,407.10 282.53,407.07 281.77,407.83C281.01,408.59 281.61,411.77 283.85,418.84C285.59,424.31 287.79,429.76 288.76,430.95C290.19,432.72 291.95,433.23 298.26,433.70C305.40,434.24 306.00,434.14 306.00,432.39C306.00,431.35 305.35,427.12 304.56,423.00C303.77,418.88 303.50,415.12 303.96,414.65C304.42,414.18 305.55,416.43 306.47,419.65C307.39,422.87 308.62,427.18 309.22,429.23C309.82,431.29 311.03,433.59 311.90,434.35C313.09,435.38 318.72,435.91 333.83,436.40C354.17,437.07 354.17,437.07 357.59,433.34C359.68,431.05 361.35,429.97 361.90,430.55C362.39,431.07 363.29,433.93 363.91,436.90C364.53,439.86 364.84,442.49 364.60,442.74C364.35,442.98 362.65,442.70 360.82,442.12C359.00,441.53 349.18,440.51 339.00,439.85C328.82,439.18 317.57,438.57 314.00,438.48C310.43,438.40 303.92,437.58 299.54,436.67C295.16,435.76 291.23,435.37 290.79,435.81C290.35,436.25 291.68,442.39 293.75,449.46C296.67,459.46 298.05,462.72 300.00,464.16C301.38,465.17 305.07,466.55 308.22,467.20C311.36,467.86 314.21,468.13 314.54,467.80C314.87,467.47 314.61,464.49 313.96,461.19C313.31,457.88 312.95,454.64 313.17,453.98C313.40,453.31 314.86,456.46 316.43,460.96C318.65,467.36 319.81,469.36 321.72,470.09C323.07,470.60 328.52,471.41 333.83,471.89C339.15,472.37 347.77,472.70 353.00,472.63zM235.73,457.91C236.40,457.96 237.67,456.91 238.55,455.57C239.43,454.22 240.00,451.69 239.82,449.85C239.53,446.85 238.60,446.02 229.50,440.51C224.00,437.18 215.00,431.27 209.50,427.37C204.00,423.47 197.61,419.32 195.29,418.14C192.97,416.96 189.75,416.00 188.12,416.00C186.49,416.00 184.44,416.28 183.54,416.62C182.65,416.96 181.27,418.52 180.46,420.07C179.66,421.63 179.00,423.94 179.01,425.20C179.01,426.95 181.47,429.34 189.26,435.15C194.89,439.36 202.20,444.37 205.50,446.29C208.80,448.21 214.43,451.03 218.00,452.55C221.57,454.08 226.75,455.89 229.50,456.58C232.25,457.27 235.05,457.87 235.73,457.91zM505.07,442.93C509.78,442.97 516.30,442.53 519.57,441.95C522.83,441.37 527.75,440.18 530.50,439.31C533.25,438.44 535.66,437.60 535.85,437.44C536.04,437.27 535.07,434.30 533.69,430.82C532.32,427.34 530.50,421.12 529.65,417.00C528.81,412.88 527.86,407.88 527.54,405.89C526.96,402.29 526.96,402.29 519.73,401.72C514.98,401.34 509.97,400.09 505.14,398.08C501.09,396.40 497.26,395.33 496.64,395.71C496.01,396.09 491.23,400.54 486.00,405.60C480.77,410.66 473.46,417.34 469.75,420.46C466.04,423.58 463.00,426.50 463.00,426.96C463.00,427.42 465.14,429.16 467.75,430.84C470.36,432.51 475.43,435.24 479.00,436.91C482.57,438.57 487.98,440.59 491.00,441.40C494.02,442.21 500.35,442.90 505.07,442.93zM558.12,438.98C560.30,438.58 562.26,438.07 562.48,437.85C562.70,437.63 561.96,435.44 560.84,432.98C559.72,430.51 557.95,424.45 556.91,419.50C555.69,413.66 555.02,406.38 555.01,398.75C555.00,387.00 555.00,387.00 552.25,387.02C550.74,387.02 546.81,387.66 543.52,388.44C539.82,389.31 536.87,390.68 535.77,392.03C534.50,393.60 534.00,395.98 534.00,400.45C534.00,403.88 534.89,410.15 535.97,414.39C537.05,418.62 539.30,424.94 540.96,428.41C542.62,431.89 544.65,435.30 545.48,435.98C546.30,436.67 548.60,437.79 550.58,438.46C552.79,439.23 555.69,439.42 558.12,438.98zM239.72,438.00C240.43,438.00 241.00,437.61 241.00,437.14C241.00,436.67 238.57,434.67 235.60,432.70C232.64,430.73 228.36,427.36 226.10,425.21C223.85,423.07 222.00,420.55 222.00,419.62C222.00,418.18 222.33,418.11 224.24,419.13C225.47,419.79 230.27,422.95 234.90,426.16C239.53,429.37 243.87,432.00 244.54,432.00C245.21,432.00 247.48,429.86 249.59,427.25C251.70,424.64 256.29,419.18 259.79,415.13C263.29,411.07 265.78,407.42 265.33,407.00C264.87,406.59 261.89,405.29 258.70,404.12C255.52,402.95 251.06,401.05 248.81,399.90C246.56,398.75 242.42,396.21 239.61,394.24C236.80,392.28 233.06,389.59 231.30,388.26C229.13,386.62 227.42,386.05 226.02,386.50C224.87,386.86 221.09,390.93 217.61,395.54C214.13,400.16 210.02,406.34 208.48,409.28C206.59,412.89 205.89,415.40 206.30,417.06C206.71,418.66 209.60,421.29 214.71,424.71C218.99,427.57 226.09,431.74 230.47,433.96C234.86,436.18 239.02,438.00 239.72,438.00zM572.13,438.00C573.16,438.00 574.00,437.60 574.00,437.12C574.00,436.64 572.86,433.75 571.47,430.71C570.07,427.66 568.28,422.09 567.48,418.33C566.69,414.58 566.03,406.18 566.02,399.68C566.01,393.19 566.47,387.00 567.04,385.93C567.93,384.27 567.73,384.00 565.65,384.00C564.31,384.00 562.16,384.86 560.86,385.92C558.61,387.75 558.51,388.37 558.62,399.67C558.69,406.17 559.29,414.43 559.96,418.00C560.62,421.57 562.09,426.65 563.22,429.29C564.35,431.92 566.40,434.96 567.77,436.04C569.15,437.12 571.11,438.00 572.13,438.00zM419.05,432.00C419.37,432.00 422.30,431.53 425.57,430.95C428.83,430.37 434.43,428.96 438.00,427.81C441.57,426.66 446.75,424.61 449.50,423.25C452.25,421.89 457.88,418.27 462.00,415.21C466.12,412.14 476.55,402.63 485.17,394.07C495.47,383.84 501.09,377.50 501.57,375.58C502.19,373.10 501.86,372.29 499.40,370.30C497.81,369.01 493.43,367.01 489.67,365.86C485.85,364.68 482.49,364.14 482.04,364.63C481.61,365.11 480.51,367.75 479.61,370.50C478.72,373.25 476.69,377.75 475.11,380.50C473.52,383.25 467.90,390.53 462.60,396.68C457.31,402.84 451.52,409.01 449.74,410.41C447.96,411.81 446.35,412.51 446.16,411.97C445.98,411.43 447.86,406.46 450.34,400.94C452.81,395.41 454.54,391.03 454.17,391.21C453.80,391.38 448.68,393.90 442.78,396.80C436.89,399.71 428.40,403.01 423.93,404.14C418.68,405.47 414.50,405.96 412.15,405.55C410.14,405.19 404.56,404.65 399.75,404.35C394.94,404.05 391.00,404.10 391.00,404.47C391.00,404.84 392.30,407.02 393.89,409.32C395.48,411.62 400.21,416.88 404.40,421.00C408.58,425.12 413.46,429.29 415.24,430.25C417.01,431.21 418.73,432.00 419.05,432.00zM590.50,431.87C592.70,431.93 598.28,431.55 602.90,431.02C607.53,430.49 613.69,429.36 616.59,428.52C619.50,427.67 622.63,426.23 623.55,425.31C624.84,424.02 625.12,422.33 624.79,417.84C624.56,414.65 624.12,411.79 623.81,411.48C623.50,411.17 617.78,411.84 611.10,412.98C604.42,414.12 596.29,415.16 593.03,415.28C589.45,415.41 586.63,415.02 585.90,414.29C584.95,413.35 584.95,412.77 585.89,411.64C586.55,410.84 589.88,409.86 593.30,409.47C596.71,409.08 604.62,407.51 610.87,405.99C617.13,404.46 622.64,402.61 623.12,401.86C623.60,401.11 623.72,399.15 623.39,397.50C623.06,395.85 622.43,394.11 621.98,393.64C621.54,393.16 615.38,393.94 608.18,395.39C601.04,396.82 593.23,397.99 590.84,397.98C588.45,397.98 585.83,397.54 585.00,397.01C583.85,396.28 583.76,395.65 584.59,394.32C585.34,393.10 588.05,392.23 593.59,391.41C597.94,390.77 605.96,389.07 611.40,387.64C616.85,386.20 621.51,384.83 621.75,384.58C622.00,384.34 621.89,382.31 621.51,380.07C621.13,377.83 620.02,375.01 619.03,373.79C617.23,371.56 617.23,371.56 600.87,374.81C591.88,376.60 582.56,379.00 580.16,380.16C577.76,381.32 574.92,383.67 573.83,385.39C572.14,388.06 571.93,389.71 572.36,397.00C572.63,401.68 573.59,409.10 574.49,413.50C575.38,417.90 577.10,423.52 578.31,426.00C579.98,429.44 581.20,430.65 583.50,431.13C585.15,431.48 588.30,431.81 590.50,431.87zM306.00,398.84C313.98,398.90 322.25,398.55 324.40,398.05C326.54,397.55 328.69,396.55 329.19,395.82C329.68,395.10 329.83,392.25 329.52,389.50C329.21,386.75 328.51,382.48 327.96,380.00C327.41,377.52 325.61,369.65 323.95,362.50C322.29,355.35 319.37,342.78 317.46,334.57C315.56,326.35 314.00,318.55 314.00,317.23C314.00,315.76 314.48,314.99 315.25,315.24C315.94,315.46 321.00,321.98 326.50,329.73C332.00,337.47 341.00,350.20 346.50,358.02C352.00,365.84 357.70,373.25 359.17,374.49C361.01,376.04 364.25,377.09 369.67,377.90C373.98,378.55 383.12,379.33 390.00,379.64C398.81,380.04 405.45,379.75 412.50,378.66C418.00,377.81 426.77,375.73 432.00,374.03C437.23,372.34 446.00,368.72 451.50,365.99C457.00,363.26 463.73,359.33 466.46,357.25C469.19,355.17 472.68,351.68 474.21,349.49C475.91,347.06 477.98,341.63 479.50,335.64C480.87,330.22 482.89,320.50 483.99,314.03C485.10,307.57 486.00,300.64 486.00,298.64C486.00,296.64 485.70,295.00 485.34,295.00C484.98,295.00 483.15,296.17 481.28,297.60C479.40,299.03 477.59,299.92 477.25,299.58C476.90,299.24 477.44,295.83 478.43,292.01C479.80,286.73 480.12,282.60 479.78,274.78C479.49,268.06 478.72,263.02 477.55,260.22C476.56,257.87 474.95,255.51 473.96,254.98C472.55,254.22 470.54,255.11 464.58,259.14C460.41,261.96 457.00,264.67 457.00,265.17C457.00,265.66 457.66,267.07 458.46,268.30C459.26,269.52 460.66,273.42 461.56,276.95C462.66,281.21 462.99,285.02 462.56,288.28C462.20,290.98 461.20,294.96 460.34,297.11C459.48,299.26 457.51,301.92 455.97,303.02C454.43,304.12 451.14,305.29 448.66,305.63C446.17,305.97 443.06,305.98 441.74,305.65C440.21,305.27 438.38,303.28 436.67,300.14C434.70,296.52 434.00,293.79 434.00,289.78C434.00,286.78 433.70,284.04 433.34,283.68C432.98,283.31 432.11,283.50 431.40,284.08C430.70,284.67 428.86,285.00 427.31,284.82C425.13,284.57 424.58,284.05 424.84,282.50C425.02,281.40 427.01,278.07 429.24,275.09C431.48,272.12 438.52,264.44 444.90,258.03C451.28,251.62 460.21,243.01 464.75,238.90C469.29,234.78 473.00,230.87 473.00,230.21C473.00,229.54 472.13,229.00 471.08,229.00C470.02,229.00 465.18,229.89 460.33,230.97C455.47,232.05 442.02,234.97 430.44,237.44C418.86,239.92 402.66,243.05 394.44,244.39C386.22,245.74 371.96,247.62 362.75,248.58C353.54,249.54 346.00,250.59 346.01,250.91C346.02,251.24 349.50,253.47 353.76,255.89C358.02,258.30 365.13,262.88 369.56,266.07C373.99,269.25 379.50,273.90 381.81,276.41C384.11,278.91 386.00,281.87 386.00,282.98C386.00,284.65 385.36,284.99 382.25,284.96C380.19,284.94 375.80,284.28 372.50,283.48C369.20,282.68 366.17,282.02 365.77,282.02C365.36,282.01 365.30,284.59 365.63,287.75C365.96,291.00 365.72,295.35 365.07,297.76C364.41,300.19 362.42,303.51 360.43,305.51C357.24,308.69 356.43,309.00 351.22,308.98C347.85,308.97 343.84,308.20 341.46,307.12C339.24,306.11 336.22,303.86 334.75,302.11C333.28,300.37 331.61,297.26 331.04,295.22C330.48,293.17 330.02,289.93 330.03,288.00C330.04,286.07 330.50,282.55 331.05,280.16C331.60,277.77 333.17,274.18 334.53,272.17C337.01,268.51 337.01,268.51 333.76,267.33C331.97,266.68 329.04,266.12 327.25,266.08C324.76,266.02 324.00,265.56 324.00,264.12C324.00,262.99 322.84,261.76 321.06,261.03C319.44,260.36 317.67,260.08 317.13,260.42C316.58,260.76 315.24,263.41 314.16,266.31C313.07,269.22 311.63,274.38 310.96,277.80C310.29,281.21 309.41,284.00 309.00,284.00C308.59,284.00 307.69,281.96 306.99,279.47C306.30,276.99 305.38,274.74 304.96,274.48C304.54,274.22 303.88,279.14 303.48,285.41C303.09,291.69 303.02,297.22 303.32,297.71C303.62,298.20 303.52,299.15 303.10,299.83C302.68,300.51 301.59,300.78 300.68,300.43C299.69,300.05 298.05,296.70 296.62,292.15C295.30,287.94 293.67,281.80 293.00,278.50C292.33,275.20 291.40,271.82 290.92,271.00C290.36,270.02 290.05,271.30 290.03,274.74C290.01,277.63 291.12,285.73 292.49,292.74C293.86,299.76 296.78,312.18 298.99,320.34C301.20,328.51 303.00,336.27 303.00,337.59C303.00,338.92 302.51,340.00 301.91,340.00C301.31,340.00 296.29,339.08 290.76,337.95C285.23,336.82 280.09,336.13 279.35,336.42C278.28,336.83 278.50,338.08 280.40,342.37C281.72,345.36 284.50,352.46 286.56,358.15C288.63,363.84 290.46,368.67 290.62,368.88C290.79,369.09 294.43,370.09 298.71,371.12C303.00,372.14 309.56,373.21 313.30,373.48C317.51,373.79 321.03,374.65 322.54,375.74C323.88,376.71 324.85,378.18 324.70,379.00C324.48,380.22 322.79,380.45 315.47,380.24C310.54,380.10 302.27,379.27 297.09,378.39C291.91,377.52 282.91,375.23 277.09,373.30C271.27,371.38 262.39,367.82 257.37,365.40C252.35,362.98 247.49,361.00 246.58,361.00C245.67,361.00 243.71,361.76 242.21,362.69C240.72,363.63 237.14,366.36 234.25,368.77C230.75,371.69 229.00,373.91 229.00,375.42C229.00,376.67 229.79,378.40 230.75,379.26C231.71,380.12 235.88,382.63 240.00,384.83C244.12,387.02 251.78,390.16 257.00,391.80C262.23,393.44 271.00,395.49 276.50,396.36C282.00,397.23 287.62,398.12 289.00,398.34C290.38,398.55 298.02,398.78 306.00,398.84zM389.50,396.47C400.57,396.25 410.28,395.53 414.73,394.58C418.70,393.73 424.77,392.10 428.23,390.94C431.68,389.79 438.65,386.89 443.73,384.50C448.80,382.11 455.88,378.20 459.45,375.82C463.03,373.45 466.18,370.94 466.45,370.25C466.79,369.36 465.85,369.48 463.22,370.63C461.17,371.53 455.04,374.05 449.59,376.23C444.13,378.41 435.54,381.25 430.49,382.53C425.44,383.81 416.40,385.31 410.40,385.86C403.45,386.50 394.43,386.54 385.50,385.96C377.80,385.46 366.10,384.37 359.50,383.53C352.90,382.70 345.58,382.01 343.23,382.01C339.20,382.00 338.99,382.14 339.48,384.50C339.77,385.88 340.22,388.09 340.50,389.42C340.84,391.07 342.04,392.18 344.25,392.88C346.04,393.45 351.32,394.38 356.00,394.95C360.68,395.52 366.07,396.17 368.00,396.40C369.93,396.64 379.60,396.67 389.50,396.47zM576.44,374.00C577.16,374.00 578.20,373.44 578.74,372.75C579.41,371.91 579.13,366.55 577.91,356.59C576.90,348.39 575.66,341.26 575.14,340.74C574.62,340.22 573.26,340.10 572.10,340.47C570.54,340.96 570.00,341.96 570.01,344.32C570.02,346.07 570.87,352.97 571.90,359.66C572.93,366.35 574.07,372.31 574.44,372.91C574.81,373.51 575.71,374.00 576.44,374.00zM588.35,371.44C590.08,371.07 592.33,370.33 593.35,369.79C594.70,369.09 595.05,368.10 594.66,366.16C594.36,364.70 593.57,358.01 592.90,351.30C592.23,344.59 591.38,338.61 591.01,338.01C590.54,337.25 589.03,337.21 586.09,337.87C583.75,338.39 581.57,339.10 581.23,339.43C580.89,339.77 581.43,346.90 582.42,355.27C583.41,363.65 584.44,370.86 584.71,371.31C584.97,371.75 586.61,371.81 588.35,371.44zM284.37,366.95C287.09,367.00 287.16,366.89 285.80,364.75C285.02,363.51 283.44,360.93 282.28,359.00C281.13,357.07 278.07,350.55 275.48,344.50C272.89,338.45 269.67,330.35 268.33,326.50C266.99,322.65 264.61,314.25 263.03,307.84C261.45,301.43 259.47,290.63 258.63,283.84C257.80,277.05 256.81,267.34 256.45,262.25C256.09,257.16 255.72,253.00 255.64,252.99C255.56,252.99 250.12,252.31 243.54,251.49C236.96,250.67 231.38,250.00 231.14,250.00C230.89,250.00 230.99,255.06 231.36,261.25C231.72,267.44 232.89,278.57 233.96,286.00C235.02,293.43 237.23,305.91 238.87,313.75C240.50,321.58 243.34,332.99 245.16,339.10C247.38,346.53 249.31,351.04 250.98,352.71C252.36,354.09 255.74,356.36 258.49,357.77C261.25,359.18 267.55,361.81 272.50,363.61C277.45,365.42 282.79,366.92 284.37,366.95zM408.28,356.74C403.81,357.03 401.54,356.62 398.25,354.95C395.91,353.76 394.00,352.46 394.00,352.07C394.00,351.67 397.04,351.97 400.75,352.74C404.46,353.51 409.62,353.99 412.22,353.82C416.31,353.54 416.74,353.69 415.50,354.93C414.70,355.73 411.50,356.53 408.28,356.74zM482.87,354.00C484.02,354.00 485.61,352.99 486.41,351.75C487.21,350.51 488.53,346.57 489.34,343.00C490.15,339.43 491.74,330.65 492.87,323.50C493.99,316.35 495.38,302.75 495.96,293.29C496.53,283.82 497.00,270.50 497.00,263.69C497.00,256.88 496.51,244.15 495.90,235.41C495.30,226.66 494.61,219.29 494.37,219.04C494.12,218.79 492.03,219.25 489.71,220.06C486.56,221.16 485.54,222.03 485.64,223.51C485.72,224.61 486.84,229.78 488.12,235.00C490.28,243.80 490.45,246.49 490.40,271.50C490.36,290.83 489.87,302.19 488.65,311.50C487.72,318.65 485.83,330.46 484.45,337.74C483.07,345.02 481.68,351.66 481.37,352.49C480.96,353.54 481.42,354.00 482.87,354.00zM416.50,348.40C412.65,348.64 404.93,348.46 399.35,347.99C393.18,347.48 387.88,346.47 385.85,345.42C384.01,344.47 381.26,342.78 379.75,341.66C378.24,340.54 377.00,339.20 377.00,338.68C377.00,338.15 379.03,338.00 381.75,338.34C384.36,338.67 389.65,339.61 393.50,340.43C397.35,341.25 404.50,341.94 409.38,341.96C416.75,341.99 419.79,341.48 427.22,338.93C432.14,337.23 436.88,336.12 437.74,336.46C439.04,336.95 438.82,337.58 436.44,340.06C434.86,341.72 431.30,344.17 428.53,345.51C425.17,347.15 421.17,348.11 416.50,348.40zM573.00,331.35C574.92,331.09 578.22,330.43 580.31,329.88C584.13,328.89 584.13,328.89 583.45,323.19C583.07,320.06 581.73,311.20 580.47,303.50C579.21,295.80 577.19,284.10 575.99,277.50C574.79,270.90 573.63,265.32 573.41,265.09C573.19,264.86 570.30,265.50 566.99,266.50C563.68,267.50 560.52,268.87 559.97,269.54C559.28,270.36 559.92,279.01 561.97,296.63C563.62,310.86 565.23,324.38 565.54,326.69C565.91,329.44 566.68,331.04 567.80,331.35C568.74,331.61 571.08,331.61 573.00,331.35zM410.18,324.75C405.13,324.99 402.46,324.58 399.25,323.08C396.42,321.76 395.00,320.46 395.00,319.18C395.00,317.35 395.26,317.33 401.14,318.69C404.52,319.47 408.68,319.97 410.39,319.80C413.50,319.50 413.50,319.50 413.28,312.75C413.16,309.04 413.39,306.00 413.78,306.00C414.18,306.00 415.69,307.92 417.14,310.25C418.60,312.59 420.08,315.88 420.43,317.56C420.93,319.93 420.60,321.05 418.96,322.53C417.43,323.92 415.03,324.53 410.18,324.75zM600.17,291.96C601.09,291.98 603.20,290.64 604.86,288.98C606.96,286.89 608.09,284.55 608.57,281.38C608.95,278.85 608.96,271.55 608.58,265.14C608.21,258.74 607.24,247.88 606.43,241.00C605.61,234.12 603.37,221.44 601.44,212.80C599.52,204.17 596.22,192.02 594.10,185.80C591.99,179.59 588.65,170.90 586.69,166.50C584.73,162.10 580.81,154.24 577.97,149.03C575.14,143.82 570.05,135.29 566.67,130.07C563.29,124.86 557.82,117.18 554.51,113.02C551.21,108.86 545.35,101.75 541.51,97.22C537.66,92.70 534.22,89.00 533.86,89.00C533.51,89.00 532.96,89.67 532.64,90.49C532.33,91.30 531.27,97.27 530.29,103.74C528.89,113.02 528.51,121.73 528.52,145.00C528.53,167.52 528.95,177.81 530.33,188.50C531.32,196.20 533.65,212.18 535.50,224.00C537.36,235.82 539.37,247.69 539.97,250.38C540.57,253.06 541.50,256.06 542.03,257.05C542.61,258.14 545.14,259.34 548.41,260.07C551.39,260.73 554.59,260.99 555.52,260.63C556.76,260.16 557.04,259.30 556.58,257.45C556.23,256.05 554.82,244.02 553.45,230.70C552.09,217.39 549.20,192.55 547.04,175.50C544.88,158.45 542.85,140.90 542.54,136.50C541.98,128.50 541.98,128.50 545.95,136.50C548.13,140.90 550.82,147.88 551.91,152.00C553.01,156.12 557.30,172.55 561.45,188.50C565.59,204.45 570.09,222.45 571.44,228.50C572.79,234.55 575.52,248.50 577.49,259.50C579.47,270.50 581.50,280.49 582.00,281.71C582.51,282.92 584.72,285.11 586.91,286.56C589.11,288.01 592.61,289.81 594.70,290.56C596.79,291.30 599.25,291.93 600.17,291.96zM276.50,245.86C290.80,245.93 309.93,245.54 319.00,244.99C328.07,244.44 340.68,243.51 347.00,242.93C353.32,242.35 365.48,241.00 374.00,239.93C382.52,238.86 393.10,237.28 397.50,236.42C401.90,235.56 421.48,230.87 441.00,226.01C460.52,221.14 479.09,216.20 482.25,215.01C486.12,213.56 488.00,212.31 487.99,211.18C487.99,210.26 487.52,207.83 486.96,205.79C486.39,203.74 485.57,201.85 485.14,201.58C484.70,201.32 481.46,201.78 477.92,202.61C474.39,203.45 465.20,205.43 457.50,207.02C449.80,208.62 440.57,210.58 437.00,211.39C433.43,212.20 422.63,214.04 413.01,215.47C403.38,216.91 386.06,218.72 374.51,219.50C362.95,220.28 341.35,221.40 326.50,221.99C311.65,222.58 288.70,222.81 275.50,222.50C262.30,222.19 247.45,221.55 242.50,221.07C237.55,220.58 233.14,220.53 232.69,220.95C232.25,221.37 231.41,226.31 230.82,231.93C230.18,237.93 230.11,242.51 230.64,243.04C231.13,243.53 235.80,244.34 241.02,244.83C246.23,245.32 262.20,245.79 276.50,245.86zM299.73,218.39C310.05,218.01 318.77,217.29 319.11,216.78C319.44,216.27 319.99,211.95 320.33,207.17C320.67,202.40 321.23,197.09 321.57,195.38C322.20,192.25 322.20,192.25 310.35,191.85C303.83,191.62 295.59,191.68 292.03,191.97C285.57,192.50 285.57,192.50 282.60,204.06C280.98,210.43 279.94,216.40 280.30,217.35C280.91,218.93 282.53,219.01 299.73,218.39zM266.18,217.86C273.86,218.00 273.86,218.00 275.46,212.25C276.34,209.09 277.98,204.03 279.11,201.00C280.25,197.97 281.41,194.52 281.69,193.31C282.13,191.47 281.69,191.05 278.85,190.60C277.01,190.30 269.43,189.29 262.00,188.35C254.57,187.40 246.93,186.60 245.01,186.57C241.64,186.50 241.45,186.70 239.74,192.00C238.76,195.03 237.20,201.20 236.26,205.73C235.14,211.16 234.89,214.29 235.55,214.95C236.09,215.49 241.48,216.34 247.52,216.83C253.56,217.32 261.96,217.78 266.18,217.86zM331.61,218.00C335.40,218.00 345.70,217.49 354.50,216.86C363.30,216.23 371.53,215.33 372.78,214.87C375.01,214.04 375.05,213.75 374.78,201.28C374.50,188.53 374.50,188.53 366.50,188.81C362.10,188.97 351.53,189.54 343.02,190.08C334.50,190.62 327.22,191.39 326.84,191.78C326.46,192.18 325.83,198.24 325.44,205.25C324.73,218.00 324.73,218.00 331.61,218.00zM390.00,214.38C391.93,214.18 398.23,213.34 404.00,212.52C409.77,211.69 419.37,210.16 425.32,209.11C431.27,208.06 436.40,206.94 436.72,206.62C437.04,206.30 436.51,201.21 435.54,195.31C434.57,189.41 433.53,183.95 433.24,183.17C432.82,182.09 431.46,181.89 427.60,182.32C424.79,182.63 414.62,183.81 405.00,184.93C395.38,186.06 385.98,187.24 384.12,187.56C380.74,188.14 380.74,188.14 381.41,195.82C381.78,200.04 382.35,205.84 382.67,208.70C383.08,212.32 383.76,214.03 384.88,214.32C385.77,214.55 388.07,214.57 390.00,214.38zM450.31,203.96C451.51,203.94 458.01,202.67 464.74,201.14C471.47,199.60 477.28,198.05 477.65,197.68C478.01,197.32 476.62,192.40 474.55,186.76C472.48,181.12 470.22,175.90 469.53,175.17C468.49,174.07 466.21,174.23 456.17,176.09C449.52,177.33 443.54,178.66 442.90,179.06C442.03,179.60 442.44,182.74 444.50,191.15C446.03,197.39 447.47,202.84 447.70,203.25C447.93,203.66 449.10,203.98 450.31,203.96zM308.60,186.60C329.71,186.52 337.08,186.18 338.22,185.23C339.06,184.53 340.05,182.10 340.41,179.83C340.78,177.55 342.91,170.02 345.16,163.09C347.41,156.17 351.19,146.32 353.57,141.22C355.95,136.12 359.58,129.14 361.64,125.72C363.71,122.30 367.63,116.42 370.35,112.65C374.29,107.21 375.02,105.62 373.90,104.92C373.13,104.43 370.12,104.02 367.21,104.02C364.30,104.01 357.55,104.47 352.21,105.04C346.87,105.62 340.25,106.81 337.50,107.68C334.75,108.56 330.25,110.40 327.50,111.77C324.75,113.14 318.73,116.97 314.12,120.29C309.52,123.61 301.39,130.64 296.07,135.91C290.75,141.18 283.46,149.45 279.87,154.27C276.28,159.09 270.79,167.30 267.67,172.51C264.55,177.72 262.00,182.64 262.00,183.45C262.00,184.32 263.32,185.13 265.25,185.46C267.04,185.76 271.20,186.16 274.50,186.35C277.80,186.54 293.14,186.66 308.60,186.60zM350.25,184.99C353.69,184.98 364.38,184.32 374.00,183.52C383.62,182.72 398.48,181.13 407.00,179.99C415.52,178.84 424.42,177.42 426.77,176.83C429.11,176.24 431.27,175.38 431.55,174.92C431.84,174.46 430.05,166.99 427.59,158.32C425.13,149.65 423.35,142.32 423.64,142.03C423.94,141.74 425.29,142.85 426.65,144.50C428.01,146.15 430.68,150.55 432.58,154.27C434.49,157.99 436.97,163.39 438.10,166.27C439.24,169.14 440.58,171.99 441.08,172.60C441.74,173.39 444.69,173.19 451.68,171.87C457.01,170.86 461.79,169.61 462.32,169.08C462.91,168.49 461.13,164.76 457.49,158.99C454.32,153.96 449.71,147.06 447.26,143.67C444.81,140.28 438.90,133.66 434.12,128.96C429.35,124.26 422.08,118.33 417.97,115.78C413.86,113.22 406.90,109.93 402.50,108.45C398.10,106.98 392.02,105.55 388.99,105.27C383.48,104.77 383.48,104.77 378.88,110.63C376.34,113.86 372.15,119.79 369.55,123.80C366.96,127.82 362.20,136.59 358.97,143.30C355.74,150.01 351.06,161.52 348.55,168.87C346.05,176.23 344.00,182.87 344.00,183.62C344.00,184.65 345.60,185.00 350.25,184.99zM298.83,184.00C298.16,184.00 297.98,182.84 298.36,180.94C298.70,179.26 300.58,174.23 302.55,169.76C304.51,165.29 307.72,158.91 309.67,155.57C311.63,152.23 314.58,147.79 316.24,145.70C317.89,143.62 319.41,142.08 319.63,142.29C319.84,142.51 315.49,151.98 309.96,163.34C304.43,174.70 299.42,184.00 298.83,184.00zM400.45,147.38C399.65,148.51 398.95,149.01 398.89,148.47C398.83,147.94 398.87,146.38 398.99,145.00C399.10,143.62 400.79,138.34 402.73,133.25C404.67,128.16 406.60,124.00 407.01,124.00C407.42,124.00 408.32,124.68 409.01,125.52C410.05,126.77 409.54,128.62 406.08,136.17C403.78,141.19 401.25,146.24 400.45,147.38zM345.25,101.72C347.04,101.45 353.68,100.48 360.00,99.57C366.32,98.66 373.30,97.60 375.50,97.21C378.89,96.61 379.80,95.89 381.45,92.50C382.53,90.30 383.59,85.91 383.82,82.75C384.19,77.68 384.02,76.99 382.37,76.89C381.34,76.83 379.38,76.87 378.00,76.99C376.62,77.10 373.21,78.27 370.41,79.59C367.62,80.91 362.22,84.19 358.41,86.87C354.61,89.55 349.36,93.64 346.75,95.96C344.14,98.28 342.00,100.63 342.00,101.19C342.00,101.79 343.37,102.01 345.25,101.72zM397.72,96.00C399.68,96.00 401.00,95.50 401.00,94.75C401.00,94.06 398.97,90.91 396.48,87.75C394.00,84.59 391.53,82.00 390.99,82.00C390.44,82.00 390.00,84.45 390.00,87.44C390.00,91.93 390.39,93.16 392.22,94.44C393.44,95.30 395.92,96.00 397.72,96.00z"/>
</svg>